<svg width="367" height="387" viewBox="0 0 367 387" fill="none" xmlns="http://www.w3.org/2000/svg">
<path d="M164.687 365.241C148.238 363.659 132.734 359.949 117.724 354.285C113.834 352.817 110.579 352.949 106.803 354.729C87.0633 364.033 67.5123 373.709 48.1388 383.75C45.6413 385.045 43.2396 386.565 40.2977 386.834C33.1537 387.485 28.7689 382.75 30.3019 375.696C35.1036 353.605 39.8954 331.51 44.95 309.476C45.823 305.671 45.3061 302.969 42.7755 299.999C22.697 276.431 9.57029 249.396 3.81074 218.996C-8.05917 156.344 7.76868 101.492 51.7437 55.3036C79.1321 26.5367 112.959 8.8191 152.167 2.62458C208.039 -6.20248 258.378 7.18338 301.921 43.5793C336.529 72.5073 357.256 109.755 364.31 154.26C378.966 246.724 320.58 336.014 229.946 360.095C208.698 365.741 187.081 367.865 164.687 365.241ZM150.603 107.941C150.447 125.103 150.708 142.259 151.424 159.405C151.694 165.869 155.95 170.18 161.604 170.051C167.51 169.917 171.665 165.803 171.965 159.427C172.679 144.294 173.303 129.157 173.885 114.019C174.641 94.3861 175.298 74.7488 176.075 55.1163C176.146 53.3191 176.588 51.4744 177.199 49.7746C178.205 46.9748 180.435 45.5239 183.375 45.584C186.33 45.6444 188.44 47.2744 189.367 50.0624C189.936 51.7779 190.284 53.6313 190.357 55.438C191.145 74.9025 191.83 94.3712 192.601 113.836C193.208 129.142 193.885 144.445 194.554 159.749C194.726 163.677 196.249 166.834 199.938 168.665C207.384 172.36 214.875 167.672 215.049 158.849C215.462 137.863 215.679 116.872 215.867 95.8818C215.987 82.552 215.874 69.2203 215.944 55.8899C215.974 50.3256 218.111 47.3973 222.056 47.1029C226.213 46.7927 228.761 49.2742 229.362 54.8055C230.225 62.7438 230.8 70.7131 231.536 78.6656C233.054 95.059 234.663 111.444 236.112 127.844C237.533 143.916 239.805 159.959 239.31 176.127C238.925 188.731 236.585 200.965 228.972 211.557C223.326 219.413 216.258 225.676 207.583 229.946C198.999 234.17 194.923 240.722 195.51 250.385C196.014 258.691 196.178 267.025 196.279 275.349C196.538 296.834 197.198 318.301 198.208 339.767C198.448 344.868 200.588 345.657 204.7 345.044C213.429 343.743 222.086 342.141 230.559 339.586C295.272 320.07 351.007 254.542 346.3 173.703C344.703 146.291 337.711 120.606 322.799 97.7709C285.958 41.3564 233.582 15.2071 166.179 20.6731C129.1 23.6801 96.908 38.8522 70.3818 64.5107C33.1925 100.484 16.175 144.756 20.4193 196.682C23.4148 233.329 37.9003 265.089 62.1368 292.468C65.9763 296.805 67.1843 301.003 65.9201 306.552C62.5202 321.472 59.4211 336.461 56.2179 351.426C55.8562 353.116 54.7736 354.866 56.3314 356.47C57.9101 356.696 58.9613 355.736 60.1345 355.18C74.8845 348.188 89.6988 341.324 104.327 334.086C109.529 331.512 114.149 331.295 119.498 333.685C133.731 340.043 148.709 343.738 164.23 345.433C168.081 345.853 168.85 344.466 168.918 341.165C169.547 310.691 170.124 280.215 171.014 249.748C171.279 240.658 167.782 234.73 159.583 230.658C142.34 222.094 131.813 208.11 128.618 189.049C125.948 173.124 128.152 157.165 129.305 141.265C130.555 124.019 132.29 106.806 133.954 89.5917C135.138 77.3452 136.535 65.1189 137.879 52.8882C138.316 48.9124 140.604 46.8947 144.625 47.1905C148.418 47.4696 150.137 49.9116 150.514 53.4546C150.654 54.7743 150.579 56.1182 150.58 57.4511C150.59 73.9478 150.596 90.4446 150.603 107.941Z" fill="#E77F07"/>
</svg>
